<?xml version="1.0" standalone="no"?>
<!DOCTYPE svg PUBLIC "-//W3C//DTD SVG 20010904//EN"
 "http://www.w3.org/TR/2001/REC-SVG-20010904/DTD/svg10.dtd">
<svg version="1.0" xmlns="http://www.w3.org/2000/svg"
 width="700.000000pt" height="700.000000pt" viewBox="0 0 700.000000 700.000000"
 preserveAspectRatio="xMidYMid meet">
<metadata>
Created by potrace 1.14, written by Peter Selinger 2001-2017
</metadata>
<g transform="translate(0.000000,700.000000) scale(0.100000,-0.100000)"
fill="#000000" stroke="none">
<path d="M3427 6344 c-1 -1 -58 -5 -127 -8 -68 -4 -126 -9 -130 -10 -3 -2 -30
-7 -60 -10 -49 -6 -76 -10 -130 -20 -439 -82 -858 -270 -1220 -547 -104 -80
-165 -135 -293 -263 -328 -331 -575 -759 -707 -1226 -34 -120 -66 -276 -75
-365 -4 -33 -8 -67 -10 -75 -15 -58 -23 -426 -11 -535 3 -27 8 -75 11 -105 16
-152 60 -365 107 -514 18 -55 33 -103 33 -106 1 -3 5 -14 10 -25 4 -11 19 -49
32 -85 95 -250 268 -538 468 -780 350 -423 885 -767 1419 -911 185 -50 381
-83 565 -95 155 -11 425 -5 507 10 11 2 46 7 79 10 33 4 67 9 75 11 8 2 31 7
50 10 146 24 369 89 545 160 727 292 1306 880 1589 1615 71 185 143 461 161
616 3 28 8 61 10 75 22 111 21 548 0 660 -2 12 -7 47 -11 78 -3 31 -8 59 -10
62 -1 3 -6 26 -9 52 -4 25 -15 81 -26 124 -11 43 -22 86 -24 96 -9 38 -56 193
-65 212 -5 11 -23 54 -39 95 -255 652 -763 1197 -1413 1514 -202 99 -526 205
-706 232 -20 3 -44 7 -52 9 -8 2 -42 7 -75 11 -33 3 -68 8 -78 10 -47 8 -382
24 -390 18z m298 -448 c105 -12 150 -17 165 -21 8 -2 31 -7 50 -10 280 -46
633 -189 889 -360 450 -300 777 -727 950 -1240 28 -82 52 -161 55 -175 2 -14
12 -59 21 -100 9 -41 18 -91 21 -110 3 -19 7 -46 9 -60 10 -56 19 -202 19
-320 0 -252 -30 -455 -101 -690 -194 -643 -646 -1175 -1247 -1470 -334 -163
-708 -249 -1073 -244 -109 1 -261 11 -308 20 -11 2 -40 7 -65 10 -70 9 -278
61 -381 96 -135 44 -338 137 -444 201 -332 203 -586 444 -794 754 -65 98 -164
281 -201 373 -12 30 -28 69 -35 85 -45 104 -117 381 -139 535 -25 179 -26 485
-2 640 2 14 7 47 11 73 16 121 80 360 126 473 6 16 15 38 19 49 24 64 117 248
171 337 114 189 220 322 383 481 344 335 774 556 1256 646 54 10 91 15 235 29
82 9 324 7 410 -2z"/>
<path d="M4525 4363 c-46 -14 -94 -59 -731 -696 -375 -375 -694 -693 -708
-706 l-26 -24 -263 263 c-145 144 -276 269 -291 277 -15 8 -48 17 -75 20 -126
15 -235 -78 -240 -204 -1 -36 4 -74 15 -98 22 -54 714 -748 769 -770 50 -22
123 -21 174 2 60 26 1615 1580 1643 1641 48 106 5 227 -98 280 -54 28 -109 32
-169 15z"/>
</g>
</svg>
